<?xml version="1.0" encoding="UTF-8"?>
<svg xmlns="http://www.w3.org/2000/svg" xmlns:xlink="http://www.w3.org/1999/xlink" id="Layer_1" data-name="Layer 1" viewBox="0 0 350 185">
  <defs>
    <style>.cls-1{fill:none;}.cls-2{fill:#f2f6fb;}.cls-3{fill:#e1e6f4;}.cls-4{fill:#6776e8;}.cls-5{fill:#c3c9e0;}.cls-6{clip-path:url(#clip-path);}.cls-7{fill:#5350cd;}.cls-8{fill:#67a2e6;}.cls-9{fill:#4167aa;}.cls-10{fill:#343d5b;}.cls-11{fill:#8697bf;}.cls-12{fill:#fff;}.cls-13{fill:#9ea9cc;}.cls-14{fill:#ffc655;}.cls-15{fill:#ffaa56;}.cls-16{fill:#ff8a57;}.cls-17{fill:#ffe461;}.cls-18{fill:#252549;}.cls-19{fill:#ffbf9f;}.cls-20{fill:#3b345b;}.cls-21{fill:#5d3c2e;}.cls-22{fill:#26242f;}.cls-23{fill:#7972d3;}.cls-24{fill:#678ee7;}.cls-25{fill:#ff9b80;}.cls-26{fill:#696b84;}.cls-27{fill:#8186aa;}.cls-28{fill:#535777;}.cls-29{fill:#e25247;}.cls-30{fill:#b2322b;}.cls-31{fill:#1d5b45;}.cls-32{fill:#2c8443;}.cls-33{fill:#6eaf45;}.cls-34{fill:#67afe5;}</style>
    <clipPath id="clip-path">
      <path id="SVGID" class="cls-1" d="M167,21.17h0a4.71,4.71,0,0,0-3.2,4.47v4.73h101.9V27.84H168.39A1.36,1.36,0,0,1,167,26.49V21.17"></path>
    </clipPath>
  </defs>
  <title>login-designer-blogs</title>
  <rect class="cls-2" width="350" height="185"></rect>
  <path class="cls-2" d="M225.15,10.22c-19.73,0-47.7,5-77.64,14.69C93.75,42.32,54,68.27,58.74,82.89c2.1,6.47,12.57,9.64,28.27,9.64,3.23,0,6.69-.14,10.34-.41.28-.36.56-.74.86-1.14,3.84-5.17,7.05-7.25,10-7.42h0l.42,0a8.88,8.88,0,0,1,4.8,1.62c1.36.89,3.44,2.45,5.66,4.19l.44-.08a42.28,42.28,0,0,1-.11-7.53,3.51,3.51,0,0,1,.62-1.51c-.26-2,2.83-1.41,1.15-3.3-2-2.28.76-4.47,2.27-6.24s.3-3.54.55-7.85a16,16,0,0,1,9.7-13,8.64,8.64,0,0,1,3.16-.59c4.73,0,8.53,3.71,8.53,3.71s4.34,1,4.72,4.9-2.36,9.19-3.21,11.68.76,2.24.54,4-1.46,1.69-.28,4a2.39,2.39,0,0,1,0,2.3,3.49,3.49,0,0,1,1,1.16c.1.24.32.82.62,1.63q7.45-2,15.15-4.52V25.64h0v0h0v0h0a4.71,4.71,0,0,1,3.7-4.51h0a4.53,4.53,0,0,1,.91-.11h85.22a7.48,7.48,0,0,0-.27-1.06c-2.09-6.48-12.57-9.64-28.26-9.64"></path>
  <path class="cls-2" d="M155.38,105.64h0l-.72,4.42a18.74,18.74,0,0,1-2.29-.43,4.1,4.1,0,0,1-.83-1.69q-2.5,1.55-4.79,3.09c0,.34,0,.66,0,1h0c0,.48,0,.89.05,1.2h.43a4.11,4.11,0,0,1,2.34.59,17.23,17.23,0,0,1,1.91,1.61l2.2.5,1.66-10.24M266.83,73.22h-1.09V83.73h0A4.73,4.73,0,0,1,261,88.46H193A258.94,258.94,0,0,0,165.89,100H184.5a.68.68,0,0,1,.67.79l-3.27,18.77-.14.76a.66.66,0,0,1-.66.56h-6.87l1.92,1.1,9,13.74h0s3.33,1.18,7,2.61h0c1.39.55,2.84,1.13,4.17,1.71,7.16-1.71,14.62-3.79,22.21-6.25,45.79-14.82,79.39-37.74,75-51.18-2-6.29-12-9.4-26.76-9.39"></path>
  <path class="cls-2" d="M91,99.41q-2.77.8-5.62,1.71c-22.91,7.42-39.83,18.51-37.8,24.78.9,2.8,5.41,4.16,12.16,4.16A84,84,0,0,0,75,128.42a62.88,62.88,0,0,1,7-16.61,80.14,80.14,0,0,1,9-12.4"></path>
  <path class="cls-2" d="M280.22,46.77a41.84,41.84,0,0,0-12.64,2.15c-.62.2-1.24.42-1.84.64V70.5A45.46,45.46,0,0,0,274,68.64c11.69-3.79,19.74-11.27,18-16.71-1.09-3.36-5.65-5.16-11.72-5.16"></path>
  <path class="cls-2" d="M274,124.49c-6.34,0-14.78,1.46-23.71,4.35-17.44,5.65-30.15,14.64-28.39,20.08.86,2.66,5,4,11.06,4,6.34,0,14.78-1.46,23.71-4.35,17.44-5.64,30.15-14.64,28.39-20.08-.86-2.66-5-4-11.06-4"></path>
  <path class="cls-3" d="M265.74,25.64V83.73A4.73,4.73,0,0,1,261,88.46H168.56a4.72,4.72,0,0,1-4.72-4.73V25.64a4.72,4.72,0,0,1,4.72-4.72H261a4.72,4.72,0,0,1,4.73,4.72"></path>
  <path class="cls-4" d="M265.74,25.64v4.73H163.84V25.64a4.71,4.71,0,0,1,3.2-4.47,4.8,4.8,0,0,1,1.52-.25H261a4.72,4.72,0,0,1,4.73,4.72"></path>
  <path class="cls-5" d="M167.55,33.91V85a1.18,1.18,0,0,0,1.18,1.18h44.88A1.18,1.18,0,0,0,214.79,85v-.36A1.19,1.19,0,0,1,216,83.44h49.77v.29A4.73,4.73,0,0,1,261,88.46H168.56a4.72,4.72,0,0,1-4.72-4.73V30.84a1.17,1.17,0,0,1,.94-.47h101v2.36h-97a1.18,1.18,0,0,0-1.18,1.18"></path>
  <g class="cls-6">
    <rect class="cls-7" x="163.84" y="21.17" width="101.9" height="9.2"></rect>
  </g>
  <path class="cls-8" d="M234.57,22.52h-51.7a1,1,0,1,0,0,1.94h51.7a1,1,0,0,0,0-1.94"></path>
  <path class="cls-8" d="M254.79,22.27H240a1,1,0,0,0-1.05,1.05v.09A1,1,0,0,0,240,24.46h14.82a1,1,0,0,0,1.05-1.05v-.09a1,1,0,0,0-1.05-1.05"></path>
  <rect class="cls-9" x="207.59" y="46.17" width="11.98" height="10.4" rx="1.46"></rect>
  <path class="cls-10" d="M214.22,51.68l.76,2.08h-2.8l.73-2.09a1.41,1.41,0,0,1-.73-1.23,1.4,1.4,0,1,1,2.8,0A1.41,1.41,0,0,1,214.22,51.68Z"></path>
  <path class="cls-11" d="M218.21,46.17h-2V43.82a2.66,2.66,0,0,0-5.31,0V45h-2V43.82a4.69,4.69,0,0,1,9.37,0Z"></path>
  <rect class="cls-12" x="188.64" y="63.32" width="49.15" height="7.31" rx="1.46"></rect>
  <rect class="cls-12" x="188.64" y="74.01" width="49.15" height="7.31" rx="1.46"></rect>
  <path class="cls-5" d="M231.74,68H194.8a.93.93,0,0,1,0-1.86h36.94a.93.93,0,1,1,0,1.86Z"></path>
  <path class="cls-5" d="M201.83,77.93a.95.95,0,1,1-1-.94A.95.95,0,0,1,201.83,77.93Z"></path>
  <path class="cls-5" d="M205.37,77.93a.94.94,0,1,1-.94-.94A.94.94,0,0,1,205.37,77.93Z"></path>
  <path class="cls-5" d="M208.91,77.93A.94.94,0,1,1,208,77,.94.94,0,0,1,208.91,77.93Z"></path>
  <path class="cls-5" d="M212.46,77.93a.95.95,0,1,1-1-.94A.95.95,0,0,1,212.46,77.93Z"></path>
  <path class="cls-5" d="M216,77.93a.95.95,0,1,1-.94-.94A.94.94,0,0,1,216,77.93Z"></path>
  <path class="cls-5" d="M219.54,77.93a.94.94,0,1,1-.94-.94A.94.94,0,0,1,219.54,77.93Z"></path>
  <path class="cls-5" d="M223.08,77.93a.94.94,0,1,1-.94-.94A.94.94,0,0,1,223.08,77.93Z"></path>
  <path class="cls-5" d="M226.63,77.93a.95.95,0,1,1-.95-.94A.95.95,0,0,1,226.63,77.93Z"></path>
  <path class="cls-3" d="M322.05,166.52c0,4.56-60.83,8.26-135.87,8.26S50.3,171.08,50.3,166.52s60.83-8.27,135.88-8.27S322.05,162,322.05,166.52Z"></path>
  <path class="cls-13" d="M212,164.46c0,2.9-28.9,5.26-64.55,5.26s-64.54-2.36-64.54-5.26,28.9-5.26,64.54-5.26S212,161.55,212,164.46Z"></path>
  <path class="cls-13" d="M293.58,163c0,1.33-13.75,2.41-30.71,2.41s-30.7-1.08-30.7-2.41,13.74-2.41,30.7-2.41S293.58,161.69,293.58,163Z"></path>
  <path class="cls-14" d="M200,153.86c-2.06,9.17-14.19,11.81-42.36,12.32s-58-.85-74.4-7.92S73.92,124.84,82,111.81,92,99.37,98.21,91c3.84-5.17,7.05-7.25,10-7.42a8.6,8.6,0,0,1,5.22,1.6c4.38,2.84,16.14,12.69,16.14,12.69s36.83,34.75,52.36,39c8.28,2.26,13.46,4.35,16.17,7.2,2.37,2.49,2.85,5.57,1.89,9.84"></path>
  <path class="cls-15" d="M127.76,136.62a2,2,0,0,0-.36,0c-.73.14-2.53.38-4.65.62a85.08,85.08,0,0,0,9,1.59c.34-.71-2.4-2.24-4-2.24m-7.37-38.34c-2.93,1.15-9,5.41-13.66,21.25-2.67,9,3.46,13.89,12.18,16.68,1.17-.21,2.32-.39,3.26-.49,4-.42-1.52-.42-6.92-4s-2.87-10.88-2.87-10.88c1.52,6.83,3.55,6.16,5.91,7.54a1.67,1.67,0,0,0,.79.31c1.09,0-.11-3.37.91-9.2a24.69,24.69,0,0,1,2.18-6.36c0-.48.12-1.1.17-1.85,0-.43,0-1,0-1.63,0-1.73-.09-3.82-.1-4.06v0h0l-.33-.11c-.34-.11-.51-.06-.74-1.1-.08-.37-.43-2.88-.82-6.12"></path>
  <path class="cls-16" d="M200,153.86c-2.06,9.17-14.19,11.81-42.36,12.32s-58-.85-74.4-7.92S73.92,124.84,82,111.81,92,99.37,98.21,91c3.84-5.17,7.05-7.25,10-7.42-3.41,2.32-9.27,7.06-11.15,13.28-2.7,8.94-7,14.27-13.66,20.24S76.11,141.38,82,148.8s24.46,11.3,48.25,13.67,63.61.94,66.06-8.3A64.87,64.87,0,0,0,198.07,144c2.37,2.49,2.85,5.57,1.89,9.84"></path>
  <path class="cls-16" d="M112.38,120.88s-2.53,7.34,2.87,10.88,11,3.54,6.92,4-12,2.28-8.61,2.28a130.79,130.79,0,0,0,13.84-1.35c1.82-.33,6.07,2.2,3.71,2.53s-3.37,3.21-3.37,3.21,2.9-3.31,9.13-1.74,5.22.38,8.76,3,5.72,3.63,3.36,1.19-4.37-4.14-3.36-3.29c.43.36,3.37.35,7.18.33,5.1,0,11.76,0,16,.85,7.48,1.53,15.24,8.84,15.24,8.84l-7.93-10.7s-51.1-10.88-53.14-16,4-19.64,4-19.64-5.87,7.42-7.07,14.26.66,10.28-1.7,8.89-4.39-.71-5.91-7.54"></path>
  <path class="cls-17" d="M85.22,126.19S75.54,141,95.38,149.92,129,157.69,129.51,157s2.66-2.55-1-5.44-28.8-7.16-32.19-13.68S91.51,121.25,85.22,126.19Z"></path>
  <path class="cls-17" d="M135.56,153.27s31.25-1,30.75,2.84-.44,4.5-11.36,4.5S127.81,156.5,135.56,153.27Z"></path>
  <path class="cls-18" d="M145.37,53s-5.61-5.48-11.69-3.12a16,16,0,0,0-9.7,13c-.25,4.31,1,6.08-.55,7.85s-4.3,4-2.27,6.24-2.87,1-.51,4.85,24.72-.17,24.72-.17,2.95-1.77,1.77-4.09.05-2.28.28-4-1.38-1.47-.54-4,3.59-7.8,3.21-11.68-4.72-4.9-4.72-4.9"></path>
  <path class="cls-19" d="M130.19,75.75s.84,0,.75-1-.55-.51,1.06-3.08,1.13-2.87.54-4.3,1.88-2.45,3.35-4.52a42.67,42.67,0,0,1,4.84-6.07c1.56-1.43,3-1.48,3.88-1.05a2.32,2.32,0,0,1,1.09,1.35s-.21,9.15-2.11,12.52-3.29,3.46-4.93,3c0,0-.59,2.92-.26,4s4,2.57,1.9,5.57-7.78,4.42-9.78,1.1-.33-7.47-.33-7.47"></path>
  <path class="cls-19" d="M197.49,149.27a44.24,44.24,0,0,1,6.87,2c1.82.94,4.22,1.25,5.32-.33s.9-2.7,2.73-4.15,5.92-3.63,5.27-5.16-2-1.2-3.18-.05-6.5,2.09-7.48,2.56-4.3.5-5,.51a29.59,29.59,0,0,1-4.05-1.22l-.48,5.79"></path>
  <path class="cls-19" d="M190.89,156.56s4.16,3.09,4.72,5.06,2,3.94,3.88,3.66,2.59-1.18,4.9-.85,6.69,1.86,7.36.34-.5-2.3-2.13-2.36-6-3.32-7-3.71a32.72,32.72,0,0,1-5.15-3c-.47-.5-2.05-2.7-2.05-2.7Z"></path>
  <path class="cls-20" d="M200,150.13a6.08,6.08,0,0,1-.69,1.29c-.66.73-4-1.4-4.13-1.52v0a11.6,11.6,0,0,1,2.34,3.35h0c.31,1.28-6.83,4.72-8.18,5s-11.13-13.42-11.13-13.42-11.14-3.37-12.4-4c-.61-.28-6.14-.29-11.67-.23h0c-5.92.08-11.86.23-11.86.23s-2.94-1-5.9-2.19-14.06-4.47-14.06-4.47-2.14-1.69-2.14-8.43,3.72-13.31,3.72-13.31l5.58.41,16.19,1.17,27.57,6.24,3,1.69,9,13.74s3.33,1.18,7,2.61c4.31,1.69,9.1,3.74,9.46,4.65.51,1.29-.74,5.09-1.67,7.15"></path>
  <path class="cls-21" d="M177.68,144.68l.5.16h0l-.5-.15m-8.84-2.75.15,0-.12,0h0"></path>
  <path class="cls-22" d="M142.67,126.19s12.06,3.46,18.89,4.81,9.11,4.22,9.7,8c.41,2.59-.87,3-1.72,3a3,3,0,0,1-.67-.08l.12,0,8.69,2.7.5.15c-.22-.28-10-12.82-10.63-13.49s-24.88-5.15-24.88-5.15"></path>
  <path class="cls-22" d="M185.18,135.72l9.95,14.17h0c.15.1,2.58,1.67,3.69,1.67a.56.56,0,0,0,.44-.15,6.08,6.08,0,0,0,.69-1.29,11.54,11.54,0,0,1-4-3.23,32.74,32.74,0,0,1-3.81-8.57h0c-3.66-1.43-7-2.61-7-2.61"></path>
  <path class="cls-22" d="M122.92,114.37a29.19,29.19,0,0,0-2.78,11.41c0,6.74,2.14,8.43,2.14,8.43s11.1,3.29,14.06,4.47,5.9,2.19,5.9,2.19,5.94-.15,11.86-.23c-9.4-1.23-22-5.84-25.66-13.1-1.86-3.65-1-8.73.38-12.87-2.83-.09-5.18-.19-5.9-.3"></path>
  <path class="cls-19" d="M150.29,103.9s1.51,5.54,2.08,5.73a18.74,18.74,0,0,0,2.29.43l1.1-6.75-.75-1s-5.48-1-4.72,1.61"></path>
  <path class="cls-4" d="M155.44,102.28c0,.27-.54.56-1.33.83h0a13.54,13.54,0,0,1-4.22.77c-.51-.21-2.24-6.29-2.24-6.29s0,.09,0,.26h0c0,.15-.06.36-.09.62-.15,1.08-.42,3-.67,5.4-.1,1-.15,2.05-.16,3.14,0,1.82.06,3.65.11,5,0,.83.06,1.44.05,1.72,0,1-2.44,1.35-7.59,1.22s-15.59-.32-16.49-.6-.54-1.32-.42-3-.06-5.71-.06-5.71l-.33-.11c-.34-.11-.51-.06-.74-1.1s-2.5-18.1-1.82-22.66,10.8-6,10.8-6a28.58,28.58,0,0,0,1.93,2.7,20.26,20.26,0,0,0,5.23,3.5c.34,0,1-.55,1.65-2.4a2.88,2.88,0,0,0-.6-3,12.67,12.67,0,0,1,3,.51c1.86.51,5.87,2.19,6.63,3.92s7.29,20.5,7.37,21.3"></path>
  <path class="cls-23" d="M147.51,98.48c-.15,1.08-.42,3-.67,5.4-.1,1-.15,2.05-.16,3.14l.83-8.54"></path>
  <path class="cls-7" d="M127.85,88.46s1.35,13.61,1.35,14.67c0,.89-.46,1-.62,1h-.06c0,.1.4,4,1,4.21s15.18,5,15.86,5c.28,0,.84-.09,1.5-.13,0-.31,0-.72-.05-1.2h0a87.37,87.37,0,0,1-9.44-2.36c-5-1.66-8.1-3.29-7.7-4.64.27-.95,4.31-1.28,7.92-1.28,1.53,0,3,.06,4.05.16a6.66,6.66,0,0,1,5.06,3.15h0c0-1.09.06-2.17.16-3.14.25-2.35.52-4.32.67-5.4h0l.42-4.34a8.62,8.62,0,0,1-3.78,3.26,20.14,20.14,0,0,1-5.23.53c-2.81,0-5.88-.33-7.36-1.15-2.64-1.46-3.71-8.32-3.71-8.32"></path>
  <path class="cls-7" d="M122.28,105.63c0,.24.1,2.33.1,4.06,0,.62,0,1.2,0,1.63-.06.82-.17,1.49-.17,2s.12.87.59,1c.7.22,7.28.38,12.56.51-2.52-.44-5.19-.9-6.91-1.41-3.82-1.13-4.67-1.82-5.12-3a38.54,38.54,0,0,1-1-4.81"></path>
  <path class="cls-19" d="M122.28,105.61s1.52-.11,3.15-.39a10.56,10.56,0,0,0,3.09-1.13s.4,4,1,4.22,15.18,5,15.86,5,2.87-.51,4.27.45a33.64,33.64,0,0,1,3.87,3.58s.15,2.18-.93,2.18-1.25-2.45-4-1.94a8.52,8.52,0,0,1-3.31.43,10.08,10.08,0,0,1-3.27-1.61c-1.35-1-9.79-1.86-13.61-3s-4.67-1.82-5.12-3a39,39,0,0,1-1-4.83"></path>
  <path class="cls-7" d="M145.63,86.4l2.3,7.74h0l-.33,3.71c0-.17,0-.26,0-.26s1.73,6.08,2.24,6.29a.62.62,0,0,0,.24,0,17,17,0,0,0,4-.8l-2-.31c-1.93-.33-3-5-3-7.2s-3.28-8.79-3.48-9.2"></path>
  <path class="cls-24" d="M129.29,79.35c-.61,0-.95.42-.82,1.57,0,0,2.47,9.23,8.49,10a4.31,4.31,0,0,0,.71,0c5.36,0,6-8.49,5.53-10.06-.24-.76-.53-1.1-.91-1.1s-1,.42-1.73,1.1a6.67,6.67,0,0,1-4.1,2,2.87,2.87,0,0,1-1.41-.36c-1.32-.71-4.29-3.2-5.76-3.2"></path>
  <path class="cls-12" d="M195.15,149.92a11.6,11.6,0,0,1,2.34,3.35A35.87,35.87,0,0,1,195.15,149.92Z"></path>
  <path class="cls-25" d="M138.66,72.54s-2.24-1.09-3.16-1.64a8.14,8.14,0,0,0-1.1-.6s2.23,5.49,2.7,5A21.9,21.9,0,0,0,138.66,72.54Z"></path>
  <path class="cls-26" d="M185.17,100.79l-3.27,18.77-.14.76a.66.66,0,0,1-.66.56H140.56a.68.68,0,0,1-.68-.67h0a.68.68,0,0,1,.68-.67h12a.68.68,0,0,0,.67-.57l3-18.39a.67.67,0,0,1,.66-.57H184.5a.68.68,0,0,1,.67.79"></path>
  <path class="cls-27" d="M170.7,109.63c0,1-.42,1.72-.93,1.72s-.93-.77-.93-1.72.42-1.71.93-1.71S170.7,108.68,170.7,109.63Z"></path>
  <path class="cls-28" d="M157.69,100h-.83a.67.67,0,0,0-.66.57l-.44,2.74-.11.67-2.17,13.37-.26,1.61a.68.68,0,0,1-.67.57h-12a.68.68,0,0,0-.68.67h0a.68.68,0,0,0,.68.67H181.1a.66.66,0,0,0,.66-.56l.14-.76H156a1.35,1.35,0,0,1-1.33-1.57l3-18"></path>
  <path class="cls-16" d="M241.5,138.23h47.35a.68.68,0,0,1,.68.68V143a.67.67,0,0,1-.67.67H241.5a.68.68,0,0,1-.68-.68V138.9A.68.68,0,0,1,241.5,138.23Z"></path>
  <path class="cls-29" d="M289.53,141.49V143a.68.68,0,0,1-.68.68H241.5a.68.68,0,0,1-.68-.68V138.9a.68.68,0,0,1,.68-.67H244v1.91a1.34,1.34,0,0,0,1.35,1.35Z"></path>
  <path class="cls-29" d="M248.25,143.65l-5.13,19.77a1.55,1.55,0,0,1-1.05,1.1,1.48,1.48,0,0,1-.81,0A1.58,1.58,0,0,1,240,163a1.5,1.5,0,0,1,.05-.37l4.17-16.9.51-2.11Z"></path>
  <path class="cls-30" d="M248.25,143.65l-5.13,19.77a1.55,1.55,0,0,1-1.05,1.1c2.22-7,3.93-18.76,3.93-18.76h-1.75l.51-2.11Z"></path>
  <path class="cls-29" d="M281.31,143.65l5.13,19.77a1.55,1.55,0,0,0,1.05,1.1,1.48,1.48,0,0,0,.81,0,1.58,1.58,0,0,0,1.23-1.53,1.5,1.5,0,0,0,0-.37l-4.16-16.9-.52-2.11Z"></path>
  <path class="cls-30" d="M281.31,143.65l5.13,19.77a1.55,1.55,0,0,0,1.05,1.1c-2.22-7-3.93-18.76-3.93-18.76h1.76l-.52-2.11Z"></path>
  <path class="cls-31" d="M259.83,134.35s-2.58-.28-2.7-2-.95-1.35-1.91-1.29a1.29,1.29,0,0,1-1.4-1.63c.17-1-1.35-1.92-.45-2.37s1.57-.39,2,.4a2,2,0,0,0,2.6.59c1.17-.48,1.84-.26,1.51,1s1.52-.46,2.08,1.85A3.08,3.08,0,0,1,259.83,134.35Z"></path>
  <path class="cls-32" d="M263.77,133.9s-2.24-2.52-1.52-3.88,2-.34,2.31-1.86.73-2.08,2.08-1.8.5-2.08,2.3-1.68,1.18,1.85,0,2.69,1.3,2-.5,2.82-3,.11-2.35,1.23a1.76,1.76,0,0,1-1.19,2.48C264.05,134.07,263.77,133.9,263.77,133.9Z"></path>
  <path class="cls-33" d="M261,133.34s-2.13-.62-1.46-2.48-2.13-1.85-1.46-3.32.11-2-.51-2.41.34-1.64,1.72-1.07.2,2.75,1.94,3,2,1.3,1.57,2.2,1.86,1.12,1.75,2.64S261,133.34,261,133.34Z"></path>
  <path class="cls-5" d="M267.93,135.41h0a2.89,2.89,0,0,1-.13.84,2.8,2.8,0,0,1-2.68,2h-6.41a2.81,2.81,0,0,1-2.81-2.81h0a2.8,2.8,0,0,1,1.75-2.6,2.9,2.9,0,0,1,1.06-.21h6.41A2.81,2.81,0,0,1,267.93,135.41Z"></path>
  <path class="cls-13" d="M267.8,136.26a2.8,2.8,0,0,1-2.68,2h-6.41a2.81,2.81,0,0,1-2.81-2.81h0a2.8,2.8,0,0,1,1.75-2.6,2.36,2.36,0,0,1,.21,1,2.46,2.46,0,0,0,2.46,2.45Z"></path>
  <rect class="cls-3" x="216.76" y="84.91" width="56.12" height="29.47" rx="2.7"></rect>
  <path class="cls-4" d="M272.88,87.61v2.14H216.76V87.61a2.62,2.62,0,0,1,.42-1.45,2.72,2.72,0,0,1,2.28-1.25h50.72a2.7,2.7,0,0,1,2.27,1.25A2.63,2.63,0,0,1,272.88,87.61Z"></path>
  <rect class="cls-5" x="234.02" y="96.45" width="21.82" height="2.75" rx="0.73"></rect>
  <rect class="cls-11" x="227.78" y="101.56" width="6.24" height="7.82" rx="0.73"></rect>
  <rect class="cls-11" x="237.34" y="101.56" width="6.24" height="7.82" rx="0.73"></rect>
  <rect class="cls-11" x="246.9" y="101.56" width="6.24" height="7.82" rx="0.73"></rect>
  <rect class="cls-11" x="256.46" y="101.56" width="6.24" height="7.82" rx="0.73"></rect>
  <path class="cls-5" d="M220.86,111.57h52v.11a2.7,2.7,0,0,1-2.7,2.7H219.46a2.7,2.7,0,0,1-2.7-2.7V89.94a.79.79,0,0,1,.52-.19H272a.85.85,0,1,1,0,1.69H220.86a.85.85,0,0,0-.84.84v18.45A.85.85,0,0,0,220.86,111.57Z"></path>
  <path class="cls-34" d="M272.45,86.16H217.18a2.72,2.72,0,0,1,2.28-1.25h50.72A2.7,2.7,0,0,1,272.45,86.16Z"></path>
</svg>
