<?xml version="1.0" encoding="UTF-8"?>
<svg xmlns="http://www.w3.org/2000/svg" id="Layer_1" data-name="Layer 1" viewBox="0 0 350 185">
  <defs>
    <style>
      .cls-1 {
        fill: #fff;
      }

      .cls-2 {
        fill: #5bb6ad;
      }

      .cls-3 {
        fill: #def0ef;
      }

      .cls-4 {
        fill: #171717;
      }
    </style>
  </defs>
  <g>
    <rect class="cls-3" width="175" height="185"></rect>
    <rect class="cls-2" x="175" width="175" height="185"></rect>
  </g>
  <g>
    <path class="cls-4" d="M176.68,72.28l-5.77,16.41-5.29-12.85-6.85,2.21c3.06,5.52,12.15,21.78,12.15,21.78,1.85-3.63,13.87-27.68,15.32-30.62l-9.56,3.08Z"></path>
    <path class="cls-4" d="M185.59,73.29c-.37,.88-.74,1.77-1.12,2.65-.38,.88-.76,1.76-1.14,2.64-.76,1.76-1.54,3.51-2.32,5.26-1.56,3.5-3.14,6.99-4.74,10.47-1.6,3.48-3.22,6.95-4.86,10.42-.82,1.73-1.65,3.46-2.48,5.18-.42,.86-.84,1.72-1.26,2.58-.42,.86-.85,1.72-1.28,2.57,.37-.88,.74-1.77,1.12-2.65,.38-.88,.76-1.76,1.14-2.64,.76-1.76,1.54-3.51,2.32-5.26,1.56-3.5,3.14-6.99,4.74-10.47,1.6-3.48,3.22-6.95,4.86-10.42,.82-1.73,1.65-3.46,2.48-5.18,.42-.86,.84-1.72,1.26-2.58,.42-.86,.85-1.72,1.28-2.58Z"></path>
    <path class="cls-4" d="M188.85,68.04c-.33,.83-.66,1.65-1,2.47-.34,.82-.68,1.64-1.03,2.46-.69,1.64-1.39,3.27-2.11,4.9-.71,1.63-1.43,3.25-2.17,4.87-.73,1.62-1.48,3.23-2.25,4.84,.65-1.65,1.34-3.3,2.03-4.94,.69-1.64,1.39-3.27,2.11-4.9,.71-1.63,1.44-3.25,2.17-4.87,.37-.81,.74-1.62,1.11-2.42,.38-.81,.75-1.61,1.14-2.41Z"></path>
    <path class="cls-4" d="M172.15,99.98c-.3,.72-.62,1.43-.93,2.15-.31,.71-.63,1.43-.95,2.14-.64,1.42-1.29,2.84-1.95,4.26-.66,1.42-1.33,2.83-2,4.23-.68,1.41-1.36,2.81-2.07,4.2,.61-1.44,1.24-2.86,1.88-4.29,.64-1.42,1.29-2.84,1.95-4.26,.66-1.42,1.33-2.83,2-4.23,.34-.7,.68-1.41,1.03-2.11,.35-.7,.69-1.4,1.05-2.1Z"></path>
    <path class="cls-4" d="M191.23,94.23l-2.07,4.32-.1-.11c-.57-.67-1.23-1.25-1.95-1.75-.36-.25-.74-.47-1.13-.67l-.29-.15-.3-.13c-.2-.09-.4-.16-.61-.23-.41-.13-.83-.21-1.25-.2-.05,0-.1,0-.16,0-.03,0-.05,0-.08,0-.03,0-.05,0-.08,0-.05,0-.1,.01-.15,.03-.02,0-.05,0-.07,.02l-.07,.02c-.1,.03-.19,.06-.28,.1-.09,.04-.18,.09-.26,.15-.16,.11-.3,.25-.41,.41-.05,.08-.1,.17-.14,.26-.02,.05-.04,.09-.05,.14-.02,.05-.03,.09-.04,.14-.04,.19-.05,.38-.02,.58,.03,.19,.1,.38,.19,.57,.09,.18,.21,.36,.33,.54,.13,.17,.26,.34,.4,.51,.29,.33,.59,.65,.91,.96,.16,.16,.32,.31,.48,.47l.48,.47c.32,.32,.64,.65,.93,.99,.3,.34,.58,.7,.84,1.08,.17,.25,.33,.52,.48,.79,.07,.13,.14,.27,.21,.41,.19,.42,.35,.86,.45,1.32,.05,.23,.09,.46,.11,.69,.02,.23,.03,.47,.02,.7,0,.12,0,.23-.02,.35,0,.06-.01,.12-.02,.17l-.02,.17v.09s-.03,.09-.03,.09l-.03,.17c-.01,.06-.03,.11-.04,.17-.01,.06-.03,.11-.04,.17-.03,.11-.06,.22-.1,.33-.02,.05-.04,.11-.05,.16l-.06,.16c-.04,.11-.09,.21-.13,.32-.02,.05-.05,.11-.07,.16l-.07,.16c-.2,.42-.44,.81-.72,1.18-.28,.37-.6,.71-.96,1.01-.35,.3-.74,.56-1.16,.77-.41,.21-.85,.38-1.29,.5-.15,.04-.3,.08-.45,.11-.3,.06-.6,.1-.9,.12-.46,.04-.92,.03-1.37,0h-.17c-.06-.02-.11-.02-.17-.03l-.34-.05c-.06,0-.11-.02-.17-.03l-.17-.03-.17-.03c-.06-.01-.11-.02-.17-.04-.11-.02-.22-.05-.33-.07l-.33-.09c-.05-.01-.11-.03-.16-.04l-.16-.05c-.11-.03-.22-.06-.32-.1l-.32-.11-.16-.06-.16-.06-.32-.12c-.1-.04-.21-.09-.31-.13l-.16-.07-.08-.03-.08-.04-.31-.14c-.05-.02-.1-.05-.15-.07l-.15-.08-.15-.08c-.05-.03-.1-.05-.15-.08-.1-.05-.2-.11-.3-.16l-.29-.17c-.1-.06-.19-.12-.29-.18-.1-.06-.19-.12-.28-.18l-.28-.19-.28-.19c-.09-.06-.18-.13-.27-.2l-.14-.1s-.09-.07-.13-.1l-.13-.1s-.09-.07-.13-.11l-.26-.22-.25-.22s-.08-.08-.12-.11l-.12-.12c-.33-.31-.64-.64-.91-1l-.04-.05,2-4.29s.75,1.01,.79,1.05c.04,.04,.08,.09,.12,.13l.11,.13,.06,.06,.06,.06c.08,.08,.15,.16,.23,.24,.08,.08,.16,.16,.24,.24,.32,.31,.66,.6,1.01,.88,.35,.28,.72,.53,1.09,.77,.38,.24,.77,.45,1.17,.64,.4,.19,.82,.36,1.24,.47,.43,.12,.87,.18,1.31,.16,.22-.01,.44-.05,.64-.12,.03,0,.05-.02,.08-.03,.03,0,.05-.02,.08-.03,.05-.02,.1-.04,.15-.07,.1-.05,.19-.11,.28-.17l.06-.05s.04-.04,.06-.05c.04-.03,.08-.07,.12-.11,.07-.08,.14-.16,.2-.25,.12-.18,.21-.38,.28-.58,.03-.1,.06-.21,.08-.31,0-.03,0-.05,.01-.08v-.08c0-.05,.01-.11,.01-.16,0-.22-.05-.43-.12-.63-.07-.2-.17-.4-.29-.59-.11-.19-.24-.37-.38-.54-.28-.35-.58-.67-.9-.98-.16-.16-.32-.31-.48-.46-.16-.15-.33-.3-.49-.46-.64-.63-1.25-1.3-1.77-2.04-.26-.37-.5-.76-.7-1.16-.05-.1-.1-.2-.15-.31-.02-.05-.05-.1-.07-.16l-.07-.16-.06-.16c-.02-.05-.04-.11-.06-.16-.03-.11-.07-.22-.1-.33-.12-.44-.2-.89-.21-1.35-.01-.46,.02-.92,.13-1.36,.1-.45,.25-.88,.45-1.29,.2-.41,.44-.8,.72-1.16,.28-.36,.6-.69,.96-.98,.36-.29,.74-.54,1.16-.74,.41-.2,.84-.36,1.29-.47,.44-.11,.9-.18,1.35-.21,.45-.03,.91-.03,1.36,.02,.45,.04,.9,.12,1.34,.21,.44,.1,.88,.23,1.31,.38,.21,.08,.43,.15,.63,.24l.16,.06,.08,.03,.08,.03,.31,.14c.41,.19,.81,.39,1.21,.61,.39,.22,.78,.46,1.15,.72,.46,.32,.91,.67,1.32,1.05Z"></path>
  </g>
  <g>
    <g>
      <g>
        <g>
          <path class="cls-1" d="M31.55,129.77v-62.98c0-1.51,1.23-2.74,2.74-2.74h98.58c1.51,0,2.74,1.23,2.74,2.74v62.98H31.55Z"></path>
          <path d="M132.86,61.31H34.29c-3.02,0-5.48,2.45-5.48,5.48v65.72h109.53V66.79c0-3.02-2.45-5.48-5.48-5.48h0Z"></path>
        </g>
        <rect class="cls-1" x="34.05" y="66.53" width="99.05" height="61.02"></rect>
        <path d="M17.31,132.51H148.74c0,3.02-2.45,5.48-5.48,5.48H22.79c-3.02,0-5.48-2.45-5.48-5.48h0Z"></path>
      </g>
      <rect class="cls-2" x="39.59" y="50.97" width="86.69" height="69.35"></rect>
      <circle class="cls-3" cx="117.24" cy="60.63" r="4.95"></circle>
      <g>
        <path d="M118.39,63.04l-3.57-3.57c-.35-.35-.35-.91,0-1.25h0c.35-.35,.91-.35,1.25,0l3.57,3.57c.35,.35,.35,.91,0,1.25h0c-.35,.35-.91,.35-1.25,0Z"></path>
        <path d="M114.83,61.79l3.57-3.57c.35-.35,.91-.35,1.25,0h0c.35,.35,.35,.91,0,1.25l-3.57,3.57c-.35,.35-.91,.35-1.25,0h0c-.35-.35-.35-.91,0-1.25Z"></path>
      </g>
      <rect class="cls-3" x="58.69" y="94.76" width="48.5" height="11.32" rx="5.66" ry="5.66"></rect>
      <rect class="cls-3" x="61.06" y="69.74" width="43.76" height="2.49"></rect>
      <rect class="cls-3" x="61.06" y="76.45" width="43.76" height="2.49"></rect>
      <rect class="cls-3" x="61.06" y="83.17" width="43.76" height="2.49"></rect>
    </g>
    <g>
      <path d="M43.75,155.02h3.47c.17,0,.31,.06,.42,.18s.17,.26,.17,.43-.06,.31-.17,.42-.26,.17-.42,.17h-4.32c-.38,0-.57-.19-.57-.57v-6.86c0-.2,.07-.37,.21-.51s.31-.21,.5-.21,.36,.07,.5,.21,.21,.31,.21,.51v6.23Z"></path>
      <path d="M51.46,156.37c-.81,0-1.51-.29-2.11-.88s-.9-1.32-.9-2.2,.3-1.61,.91-2.2,1.31-.88,2.11-.88c.5,0,.94,.12,1.34,.37s.68,.56,.85,.95l.02-.85c.02-.13,.09-.23,.21-.31s.26-.12,.42-.12c.18,0,.33,.06,.45,.19s.18,.29,.18,.49v4.71c0,.2-.05,.36-.16,.5s-.26,.2-.47,.2c-.18,0-.32-.04-.43-.13s-.18-.18-.2-.3l-.02-.86c-.16,.39-.44,.71-.85,.95s-.85,.36-1.34,.36Zm-1.1-1.75c.37,.37,.81,.55,1.32,.55s.96-.18,1.32-.55,.54-.81,.54-1.32-.18-.96-.54-1.32-.8-.54-1.32-.54-.96,.18-1.32,.54-.55,.8-.55,1.32,.18,.96,.55,1.32Z"></path>
      <path d="M58.01,156.15c-.13,.13-.29,.2-.49,.2s-.37-.07-.49-.2-.19-.3-.19-.5v-4.74c0-.18,.06-.33,.17-.45s.27-.18,.47-.18c.18,0,.34,.05,.46,.14s.18,.23,.18,.4v.84h.02c.17-.44,.44-.79,.8-1.05s.78-.39,1.22-.39c.78,0,1.41,.27,1.89,.8s.72,1.2,.72,2v2.62c0,.2-.06,.36-.19,.5s-.29,.2-.49,.2-.36-.07-.49-.2-.19-.3-.19-.5v-2.48c0-.47-.15-.88-.46-1.21s-.68-.5-1.14-.5-.82,.17-1.14,.52-.47,.76-.47,1.24v2.44c0,.2-.06,.36-.19,.5Z"></path>
      <path d="M67.09,156.37c-.8,0-1.5-.29-2.09-.88s-.89-1.32-.89-2.2,.3-1.61,.89-2.19,1.28-.88,2.07-.88c.47,0,.91,.12,1.3,.37s.67,.56,.82,.95h.02v-3.26c0-.2,.06-.37,.19-.5s.29-.2,.49-.2,.36,.07,.49,.2,.19,.3,.19,.5v7.37c0,.22-.05,.39-.16,.51s-.27,.18-.48,.18c-.17,0-.31-.05-.44-.15s-.18-.22-.18-.37v-.85h-.02c-.16,.43-.45,.76-.87,1.02s-.86,.38-1.33,.38Zm-1.08-1.75c.37,.37,.81,.55,1.32,.55s.96-.18,1.32-.55,.54-.81,.54-1.32-.18-.96-.54-1.32-.8-.54-1.32-.54-.96,.18-1.32,.54-.55,.8-.55,1.32,.18,.96,.55,1.32Z"></path>
      <path d="M73.15,149.41c-.23,0-.43-.08-.59-.25s-.25-.36-.25-.59,.08-.43,.25-.59,.36-.25,.6-.25,.43,.08,.6,.25,.25,.36,.25,.59-.08,.42-.25,.58-.37,.25-.6,.25Zm.49,6.74c-.13,.13-.29,.2-.49,.2s-.37-.07-.49-.2-.19-.3-.19-.5v-4.69c0-.21,.06-.38,.19-.51s.29-.2,.49-.2,.37,.07,.49,.2,.19,.3,.19,.51v4.69c0,.2-.06,.36-.19,.5Z"></path>
      <path d="M76.91,156.15c-.13,.13-.29,.2-.49,.2s-.37-.07-.49-.2-.19-.3-.19-.5v-4.74c0-.18,.06-.33,.17-.45s.27-.18,.47-.18c.18,0,.34,.05,.46,.14s.18,.23,.18,.4v.84h.02c.17-.44,.44-.79,.8-1.05s.78-.39,1.22-.39c.78,0,1.41,.27,1.89,.8s.72,1.2,.72,2v2.62c0,.2-.06,.36-.19,.5s-.29,.2-.49,.2-.36-.07-.49-.2-.19-.3-.19-.5v-2.48c0-.47-.15-.88-.46-1.21s-.68-.5-1.14-.5-.82,.17-1.14,.52-.47,.76-.47,1.24v2.44c0,.2-.06,.36-.19,.5Z"></path>
      <path d="M86.37,158.99c-.59,0-1.12-.12-1.6-.37s-.82-.53-1.02-.85c-.19-.15-.29-.33-.29-.54,0-.15,.06-.28,.17-.39s.25-.16,.42-.16c.21,0,.37,.07,.49,.22,.19,.3,.45,.54,.77,.71s.67,.26,1.03,.26c.57,0,1.04-.17,1.42-.52s.57-.8,.57-1.36v-1.24h-.02c-.14,.41-.43,.73-.85,.98s-.88,.37-1.37,.37-.97-.12-1.41-.35-.81-.58-1.09-1.03-.42-.96-.42-1.53,.14-1.04,.43-1.51,.66-.82,1.12-1.07,.94-.38,1.44-.38c.47,0,.92,.12,1.33,.36s.7,.56,.86,.96h.02v-.85c.11-.3,.31-.45,.63-.45,.18,0,.34,.07,.46,.2s.19,.3,.19,.51v4.88c0,.98-.31,1.75-.93,2.31s-1.4,.84-2.35,.84Zm.12-4c.5,0,.92-.18,1.27-.53s.53-.78,.53-1.28-.18-.91-.53-1.26-.79-.53-1.29-.53-.92,.17-1.28,.52-.54,.77-.54,1.28,.18,.91,.54,1.27,.79,.53,1.31,.53Z"></path>
      <path d="M98.04,153.48h-2.3v2.17c0,.2-.06,.36-.19,.5s-.29,.2-.49,.2-.36-.07-.49-.2-.19-.3-.19-.5v-6.77c0-.2,.07-.37,.2-.5s.3-.2,.5-.2h3.04c.73,0,1.36,.25,1.87,.75s.76,1.13,.76,1.89-.25,1.4-.76,1.9-1.15,.75-1.93,.75Zm-2.3-4.17v3.04h1.99c.46,0,.85-.15,1.16-.44s.47-.65,.47-1.09-.15-.78-.46-1.08-.68-.44-1.12-.44h-2.04Z"></path>
      <path d="M104.41,156.37c-.81,0-1.51-.29-2.11-.88s-.9-1.32-.9-2.2,.3-1.61,.91-2.2,1.31-.88,2.11-.88c.5,0,.94,.12,1.34,.37s.68,.56,.85,.95l.02-.85c.02-.13,.09-.23,.21-.31s.26-.12,.42-.12c.18,0,.33,.06,.45,.19s.18,.29,.18,.49v4.71c0,.2-.05,.36-.16,.5s-.26,.2-.47,.2c-.18,0-.32-.04-.43-.13s-.18-.18-.2-.3l-.02-.86c-.16,.39-.44,.71-.85,.95s-.85,.36-1.34,.36Zm-1.1-1.75c.37,.37,.81,.55,1.32,.55s.96-.18,1.32-.55,.54-.81,.54-1.32-.18-.96-.54-1.32-.8-.54-1.32-.54-.96,.18-1.32,.54-.55,.8-.55,1.32,.18,.96,.55,1.32Z"></path>
      <path d="M112.7,158.99c-.59,0-1.12-.12-1.6-.37s-.82-.53-1.02-.85c-.19-.15-.29-.33-.29-.54,0-.15,.06-.28,.17-.39s.25-.16,.42-.16c.21,0,.37,.07,.49,.22,.19,.3,.45,.54,.77,.71s.67,.26,1.03,.26c.57,0,1.04-.17,1.42-.52s.57-.8,.57-1.36v-1.24h-.02c-.14,.41-.43,.73-.85,.98s-.88,.37-1.37,.37-.97-.12-1.41-.35-.81-.58-1.09-1.03-.42-.96-.42-1.53,.14-1.04,.43-1.51,.66-.82,1.12-1.07,.94-.38,1.44-.38c.47,0,.92,.12,1.33,.36s.7,.56,.86,.96h.02v-.85c.11-.3,.31-.45,.63-.45,.18,0,.34,.07,.46,.2s.19,.3,.19,.51v4.88c0,.98-.31,1.75-.93,2.31s-1.4,.84-2.35,.84Zm.12-4c.5,0,.92-.18,1.27-.53s.53-.78,.53-1.28-.18-.91-.53-1.26-.79-.53-1.29-.53-.92,.17-1.28,.52-.54,.77-.54,1.28,.18,.91,.54,1.27,.79,.53,1.31,.53Z"></path>
      <path d="M123.74,152.94c0,.22-.08,.41-.25,.56s-.37,.23-.6,.23h-4.12c.1,.46,.32,.83,.67,1.11s.78,.41,1.28,.41c.64,0,1.16-.23,1.55-.69,.18-.2,.36-.3,.54-.3,.17,0,.31,.05,.42,.16s.17,.24,.17,.39c0,.19-.07,.36-.22,.52-.26,.3-.61,.55-1.05,.75s-.93,.29-1.47,.29c-.92,0-1.7-.29-2.32-.88s-.94-1.32-.94-2.19,.3-1.58,.91-2.18,1.38-.89,2.33-.89c.83,0,1.55,.28,2.17,.83s.92,1.18,.92,1.88Zm-4.96-.21h3.66c-.11-.44-.32-.78-.63-1.03s-.69-.37-1.16-.37c-.5,0-.92,.13-1.24,.38s-.54,.59-.63,1.02Z"></path>
    </g>
  </g>
  <g>
    <g>
      <g>
        <g>
          <path class="cls-1" d="M217.57,129.84v-62.45c0-1.5,1.22-2.72,2.71-2.72h97.75c1.5,0,2.72,1.22,2.72,2.72v62.45h-103.18Z"></path>
          <path d="M318.03,61.95h-97.75c-3,0-5.43,2.43-5.43,5.43v65.17h108.61V67.38c0-3-2.43-5.43-5.43-5.43h0Z"></path>
        </g>
        <rect class="cls-1" x="220.04" y="67.12" width="98.22" height="60.52"></rect>
        <path d="M203.45,132.55h130.34v.08c0,2.95-2.4,5.35-5.35,5.35h-119.63c-2.95,0-5.35-2.4-5.35-5.35v-.08h0Z"></path>
      </g>
      <g>
        <rect class="cls-3" x="229.18" y="29.02" width="78.86" height="98.57"></rect>
        <rect class="cls-2" x="233.67" y="39.86" width="69.89" height="21.59"></rect>
        <rect class="cls-2" x="254.91" y="64.01" width="27.4" height="2.46"></rect>
        <rect class="cls-2" x="233.62" y="69.53" width="21.09" height="21.09"></rect>
        <rect class="cls-2" x="258.07" y="69.53" width="21.09" height="21.09"></rect>
        <rect class="cls-2" x="282.41" y="69.53" width="21.09" height="21.09"></rect>
        <path class="cls-2" d="M249.93,98.02h-11.34c-.95,0-1.73-.77-1.73-1.73h0c0-.95,.77-1.73,1.73-1.73h11.34c.95,0,1.73,.77,1.73,1.73h0c0,.95-.77,1.73-1.73,1.73Z"></path>
        <path class="cls-2" d="M274.28,98.02h-11.34c-.95,0-1.73-.77-1.73-1.73h0c0-.95,.77-1.73,1.73-1.73h11.34c.95,0,1.73,.77,1.73,1.73h0c0,.95-.77,1.73-1.73,1.73Z"></path>
        <rect class="cls-2" x="285.57" y="94.77" width="14.79" height="3.45" rx="1.73" ry="1.73"></rect>
        <rect class="cls-2" x="233.62" y="102.26" width="69.99" height="25.33"></rect>
        <g>
          <rect class="cls-3" x="244.22" y="105.9" width="54.02" height="2.46"></rect>
          <rect class="cls-3" x="238.99" y="105.9" width="2.46" height="2.46"></rect>
        </g>
        <g>
          <rect class="cls-3" x="244.17" y="111.33" width="35.39" height="2.46"></rect>
          <rect class="cls-3" x="238.94" y="111.33" width="2.46" height="2.46"></rect>
        </g>
        <g>
          <rect class="cls-3" x="244.17" y="117.34" width="42.88" height="2.46"></rect>
          <rect class="cls-3" x="238.94" y="117.34" width="2.46" height="2.46"></rect>
        </g>
        <g>
          <rect class="cls-3" x="244.17" y="122.66" width="39.33" height="2.46"></rect>
          <rect class="cls-3" x="238.94" y="122.66" width="2.46" height="2.46"></rect>
        </g>
      </g>
    </g>
    <g>
      <path d="M247.61,156.34c-.18,0-.3-.08-.38-.23l-2.77-7.08c-.04-.09-.06-.18-.06-.28,0-.18,.07-.34,.2-.48s.29-.21,.48-.21c.14,0,.27,.04,.38,.11s.19,.18,.24,.31l2.02,5.14,2.06-5.26c.06-.17,.19-.25,.37-.25s.31,.08,.38,.25l2.05,5.26,2.03-5.14c.05-.12,.13-.22,.24-.3s.24-.12,.39-.12c.19,0,.35,.07,.49,.21s.2,.3,.2,.48c0,.1-.02,.19-.06,.28l-2.78,7.08c-.07,.17-.2,.25-.38,.25s-.31-.08-.38-.25l-2.17-5.65-2.17,5.65c-.07,.16-.2,.23-.38,.23Z"></path>
      <path d="M262.65,152.94c0,.22-.08,.41-.25,.56s-.37,.23-.6,.23h-4.12c.1,.46,.32,.83,.67,1.11s.78,.41,1.28,.41c.64,0,1.16-.23,1.55-.69,.18-.2,.36-.3,.54-.3,.17,0,.31,.05,.42,.16s.17,.24,.17,.39c0,.19-.07,.36-.22,.52-.26,.3-.61,.55-1.05,.75s-.93,.29-1.47,.29c-.92,0-1.7-.29-2.32-.88s-.94-1.32-.94-2.19,.3-1.58,.91-2.18,1.38-.89,2.33-.89c.83,0,1.55,.28,2.17,.83s.92,1.18,.92,1.88Zm-4.96-.21h3.66c-.11-.44-.32-.78-.63-1.03s-.69-.37-1.16-.37c-.5,0-.92,.13-1.24,.38s-.54,.59-.63,1.02Z"></path>
      <path d="M267.52,156.37c-.47,0-.92-.13-1.34-.38s-.71-.59-.87-1.02h-.01v.85c0,.14-.06,.27-.19,.37s-.27,.15-.44,.15c-.21,0-.37-.06-.48-.18s-.17-.29-.17-.51v-7.37c0-.2,.06-.37,.19-.5s.29-.2,.49-.2,.37,.07,.49,.2,.19,.3,.19,.5v3.26h.02c.16-.39,.44-.71,.83-.95s.83-.37,1.29-.37c.79,0,1.48,.29,2.07,.88s.89,1.32,.89,2.19-.3,1.61-.89,2.2-1.29,.88-2.09,.88Zm-1.57-1.75c.37,.37,.81,.55,1.33,.55s.96-.18,1.32-.55,.54-.81,.54-1.32-.18-.96-.54-1.32-.8-.54-1.32-.54-.96,.18-1.33,.54-.55,.8-.55,1.32,.18,.96,.55,1.32Z"></path>
      <path d="M274.25,156.43c-.97,0-1.7-.11-2.19-.34-.28-.14-.42-.32-.42-.55,0-.16,.06-.3,.17-.41s.25-.15,.43-.12c.15,.02,.38,.07,.67,.13s.55,.11,.77,.14,.42,.05,.61,.05c.37,0,.67-.06,.92-.17s.37-.28,.37-.5c0-.06,0-.12-.03-.17s-.05-.1-.09-.15-.09-.09-.13-.12-.11-.07-.2-.1-.16-.07-.22-.09-.14-.05-.26-.08-.2-.05-.26-.06-.16-.03-.29-.07-.23-.05-.28-.06c-.26-.05-.48-.11-.65-.17s-.37-.13-.59-.23-.38-.21-.51-.32-.24-.26-.33-.45-.13-.38-.13-.61c0-.55,.24-.98,.73-1.28s1.17-.45,2.05-.45c.82,0,1.49,.12,2,.35,.33,.14,.49,.33,.49,.55,0,.14-.05,.27-.15,.38s-.25,.14-.44,.1c-.11-.02-.27-.06-.49-.11s-.4-.09-.52-.12-.28-.05-.46-.08-.36-.04-.52-.04c-.35,0-.64,.05-.86,.16s-.34,.28-.34,.5c0,.09,.02,.17,.06,.25s.11,.14,.21,.2,.19,.11,.26,.15,.19,.08,.37,.12,.3,.07,.38,.09,.22,.04,.43,.08c.28,.05,.52,.11,.72,.17s.41,.13,.64,.23,.41,.2,.54,.32,.25,.26,.34,.45,.14,.39,.14,.62c0,.59-.26,1.03-.79,1.34s-1.24,.47-2.14,.47Z"></path>
      <path d="M279.23,149.41c-.23,0-.43-.08-.59-.25s-.25-.36-.25-.59,.08-.43,.25-.59,.36-.25,.6-.25,.43,.08,.6,.25,.25,.36,.25,.59-.08,.42-.25,.58-.37,.25-.6,.25Zm.49,6.74c-.13,.13-.29,.2-.49,.2s-.37-.07-.49-.2-.19-.3-.19-.5v-4.69c0-.21,.06-.38,.19-.51s.29-.2,.49-.2,.37,.07,.49,.2,.19,.3,.19,.51v4.69c0,.2-.06,.36-.19,.5Z"></path>
      <path d="M285.07,155.17c.18-.03,.33,0,.45,.11s.18,.25,.18,.41c0,.14-.05,.27-.14,.37s-.22,.17-.37,.2c-.26,.06-.49,.1-.71,.1-.71,0-1.28-.21-1.7-.64s-.63-.96-.63-1.61v-2.65h-.69c-.15,0-.28-.05-.39-.16s-.16-.24-.16-.39,.05-.28,.16-.38,.24-.16,.39-.16h.69v-.95c0-.19,.07-.35,.21-.49s.3-.2,.49-.2,.35,.07,.48,.2,.2,.29,.2,.49v.95h1.62c.15,0,.28,.05,.38,.16s.16,.23,.16,.38-.05,.28-.16,.39-.23,.16-.38,.16h-1.62v2.53c0,.37,.1,.67,.29,.89s.47,.34,.84,.34c.07,0,.21-.02,.42-.07Z"></path>
      <path d="M292.82,152.94c0,.22-.08,.41-.25,.56s-.37,.23-.6,.23h-4.12c.1,.46,.32,.83,.67,1.11s.78,.41,1.28,.41c.64,0,1.16-.23,1.55-.69,.18-.2,.36-.3,.54-.3,.17,0,.31,.05,.42,.16s.17,.24,.17,.39c0,.19-.07,.36-.22,.52-.26,.3-.61,.55-1.05,.75s-.93,.29-1.47,.29c-.92,0-1.7-.29-2.32-.88s-.94-1.32-.94-2.19,.3-1.58,.91-2.18,1.38-.89,2.33-.89c.83,0,1.55,.28,2.17,.83s.92,1.18,.92,1.88Zm-4.96-.21h3.66c-.11-.44-.32-.78-.63-1.03s-.69-.37-1.16-.37c-.5,0-.92,.13-1.24,.38s-.54,.59-.63,1.02Z"></path>
    </g>
  </g>
</svg>
