<svg xmlns:xlink="http://www.w3.org/1999/xlink" class="mx-1 desktop:mx-2 my-1" height="49" viewBox="0 0 207 49" width="207" xmlns="http://www.w3.org/2000/svg"><g fill="none" fill-rule="evenodd"><path d="m48.4678641 24.6764203c0 13.3838488-10.8498153 24.2336641-24.2336641 24.2336641-13.3838487 0-24.23366401-10.8498153-24.23366401-24.2336641 0-13.3838487 10.84981531-24.23366401 24.23366401-24.23366401 13.3838488 0 24.2336641 10.84981531 24.2336641 24.23366401" fill="var(--color-black)"></path><path d="m27.4653552 24.6763395v.000202h-6.8662048v-7.2700992h6.8662048v-.000202c2.0075571 0 3.6350496 1.6274925 3.6350496 3.6350496 0 2.0075572-1.6274925 3.6350496-3.6350496 3.6350496m0-12.116832v.000202l-11.7129376-.000202v24.2336641h4.8467328v-7.2698973h6.8662048v-.000202c4.6843673 0 8.4817824-3.7974151 8.4817824-8.4817824 0-4.6843672-3.7974151-8.4817824-8.4817824-8.4817824" fill="#F7F2F2"></path><g fill="currentColor"><path d="m73.9269235 21.714178c0-1.3328515-1.024882-2.141852-2.355916-2.141852h-3.568609v4.2594704h3.568609c1.331034 0 2.355916-.8090005 2.355916-2.1176184zm-9.3033036 11.0400496v-16.1557761h7.4221654c3.4504699 0 5.3295886 2.3316824 5.3295886 5.1157265 0 2.7598104-1.9023426 5.0914928-5.3295886 5.0914928h-4.0433868v5.9485568z"></path><path d="m79.4309944 32.7543083v-11.7783685h3.0203224v1.5471175c.8330322-.9996386 2.2377769-1.831863 3.6655436-1.831863v2.9496408c-.2150738-.0474576-.4765954-.0706815-.8330322-.0706815-.9996386 0-2.3326921.5705008-2.8325114 1.3088198v7.8753349z"></path><path d="m96.2803581 26.7106749c0-1.7844055-1.0481059-3.3313211-2.9506505-3.3313211-1.8811382 0-2.9274266 1.5469156-2.9274266 3.3313211 0 1.8086391 1.0462884 3.3545449 2.9274266 3.3545449 1.9025446 0 2.9506505-1.5459058 2.9506505-3.3545449m-9.018558 0c0-3.2596298 2.2842247-6.0194402 6.0679075-6.0194402 3.8069067 0 6.0911314 2.7598104 6.0911314 6.0194402 0 3.2596297-2.2842247 6.0436738-6.0911314 6.0436738-3.7836828 0-6.0679075-2.7840441-6.0679075-6.0436738"></path><path d="m109.588194 28.7565414v-4.0684283c-.499819-.7615429-1.594373-1.3088198-2.594214-1.3088198-1.735736 0-2.925407 1.3562774-2.925407 3.331321 0 1.9984695 1.189671 3.3545449 2.925407 3.3545449.999841 0 2.094395-.5472769 2.594214-1.3086178zm0 3.9977467v-1.7609795c-.904724 1.1420114-2.140842 1.7609795-3.545385 1.7609795-2.878959 0-5.091493-2.1891076-5.091493-6.0436738 0-3.7352154 2.166086-6.0194402 5.091493-6.0194402 1.356075 0 2.640661.5707028 3.545385 1.7601718v-5.8528338h3.045566v16.155776z"></path><path d="m123.395869 32.7543083v-1.7369478c-.784565.856458-2.164066 1.7369478-4.043387 1.7369478-2.52232 0-3.711991-1.3803091-3.711991-3.6170763v-8.1612922h3.020524v6.9718232c0 1.5943732.833032 2.1174164 2.117417 2.1174164 1.166245 0 2.094394-.6421921 2.617437-1.3086178v-7.7806218h3.022342v11.7783685z"></path><path d="m128.686846 26.7106749c0-3.5211514 2.56897-6.0194402 6.091131-6.0194402 2.355916 0 3.783683 1.0228625 4.545024 2.0701607l-1.976054 1.854885c-.546469-.8087985-1.379501-1.2369266-2.425587-1.2369266-1.832873 0-3.117257 1.3328516-3.117257 3.3313211s1.284384 3.3545449 3.117257 3.3545449c1.046086 0 1.879118-.4755857 2.425587-1.2611603l1.976054 1.8558948c-.761341 1.0472982-2.189108 2.0943944-4.545024 2.0943944-3.522161 0-6.091131-2.4982888-6.091131-6.0436738"></path><path d="m141.921051 29.589614v-5.9719827h-1.902544v-2.6416713h1.902544v-3.1404809h3.022342v3.1404809h2.330673v2.6416713h-2.330673v5.1631841c0 .7371073.379661 1.2843842 1.046087 1.2843842.451554 0 .881499-.1666064 1.046288-.3564368l.643202 2.3074487c-.451352.4049041-1.261362.738117-2.522522.738117-2.117619 0-3.235397-1.0945538-3.235397-3.1647145"></path><path d="m166.629392 32.7543083v-6.9716212h-7.495674v6.9716212h-3.376961v-16.155776h3.376961v6.2335042h7.495674v-6.2335042h3.402003v16.155776z"></path><path d="m180.843911 32.7543083v-1.7369478c-.784565.856458-2.164067 1.7369478-4.043387 1.7369478-2.522321 0-3.711992-1.3803091-3.711992-3.6170763v-8.1612922h3.020323v6.9718232c0 1.5943732.833234 2.1174164 2.117618 2.1174164 1.166245 0 2.094394-.6421921 2.617438-1.3086178v-7.7806218h3.022341v11.7783685z"></path><path d="m194.626383 32.7543083v-7.2331428c0-1.5945751-.831215-2.141852-2.117618-2.141852-1.189469 0-2.092375.6664257-2.617236 1.3328515v8.0421433h-3.020524v-11.7783685h3.020524v1.4754263c.738117-.8562562 2.165884-1.7601718 4.02198-1.7601718 2.545545 0 3.75844 1.4269589 3.75844 3.6635241v8.3995899z"></path><path d="m201.273536 29.589614v-5.9719827h-1.902545v-2.6416713h1.902545v-3.1404809h3.022341v3.1404809h2.330673v2.6416713h-2.330673v5.1631841c0 .7371073.379661 1.2843842 1.046087 1.2843842.451554 0 .881499-.1666064 1.048106-.3564368l.641384 2.3074487c-.451554.4049041-1.261362.738117-2.522522.738117-2.117619 0-3.235396-1.0945538-3.235396-3.1647145"></path></g></g></svg>