<svg xmlns:xlink="http://www.w3.org/1999/xlink" class="mx-1 desktop:mx-2 my-1 hidden tablet:block" height="24" viewBox="0 0 158 24" width="158" xmlns="http://www.w3.org/2000/svg"><path d="m.09113809.78481948h9.84515283v2.64670283h-3.38836131v19.80664429h-2.96663394v-19.80664429h-3.49015758zm10.40180061 3.74222451h2.5206694v7.31963601h3.6961738v-7.31963601h2.5206694v18.71112261h-2.5206694v-9.2586125h-3.6961738v9.2586125h-2.5206694zm10.7944434 0h6.7015873v2.13287407h-4.1809179v5.92599674h3.7082924v2.1328741h-3.7082924v6.3865036h4.1809179v2.1328741h-6.7015873zm8.4773666-3.74222451h3.9845965c1.9195963 0 3.3156454.48473926 4.1881891 1.45423232.8725438.97918799 1.3088091 2.53035363 1.3088091 4.65354344 0 2.98603863-.877378 4.91530086-2.6321605 5.78784466-.8822387.3974921-2.1571029.5962352-3.824631.5962352v9.9614915h-3.0248032zm3.0248032 9.90332212c1.250646 0 2.1134819-.2520644 2.5885335-.75620081.4847466-.51383132.7271162-1.42514113.7271162-2.73395677 0-1.33790042-.2326749-2.31707373-.6980315-2.93754929-.4653567-.62047556-1.197313-.93070869-2.1958908-.93070869h-.4217274zm7.6678439-6.16109761h2.5206693v16.57824851h4.120325v2.1328741h-6.6409943zm7.5587764 0h2.472195v13.22139551c0 1.3492112.1211848 2.2459788.3635581 2.6903298.2504523.444351.7432706.6665232 1.4784695.6665232s1.2199382-.1938957 1.4542323-.5816929c.2423733-.3958764.3635581-1.1997357.3635581-2.411602v-13.58495361h2.472195v13.58495361c0 2.0359354-.3110411 3.4134028-.9331325 4.1324435-.743278.81599-1.8783757 1.2239789-3.4053273 1.2239789-1.6804547 0-2.8640264-.5251342-3.5507506-1.5754183-.4766674-.7190407-.7149976-2.1005476-.7149976-4.1445622zm15.1450218 8.87081721h4.5808318v.7271161c0 3.6436781-.31912 6.1037299-.9573696 7.3802291-.6301705 1.3088156-1.8097027 1.9632136-3.538632 1.9632136-1.7854831 0-3.0579236-.7271089-3.8173598-2.1813485-.7513572-1.4542396-1.1270301-3.8981333-1.1270301-7.3317546 0-3.9264469.4120284-6.53999943 1.2360975-7.84073596.7755944-1.21994544 1.9672451-1.829909 3.5749878-1.829909 1.2280245 0 2.1853846.29488305 2.8721088.88465799.6948034.59785406 1.2360956 1.57945106 1.6238928 2.94482046l-2.3510089.98160682c-.1050285-.49282564-.2221738-.90687376-.3514395-1.24215678-.1292658-.33528302-.2706481-.59583037-.4241511-.78164987-.3070062-.37971812-.7675085-.56957433-1.3815207-.56957433-.8402274 0-1.4138355.51705521-1.7208416 1.55118115-.3070061 1.08260058-.4605069 3.02559712-.4605069 5.82904792 0 2.8357672.1575402 4.7545268.4726255 5.7563363.3150852 1.0018095.9088908 1.5027067 1.7814346 1.5027067.7998318 0 1.3613214-.3554755 1.6844858-1.066437.3312434-.7594363.4968627-1.9793634.4968627-3.6598181v-.884658h-2.1934671zm6.262086-8.87081721h2.5206693v18.71112261h-2.5206693zm4.5776001 0h2.351009l2.5085507 7.46505931c.7271198 2.1086474 1.3693993 4.3586454 1.9268579 6.7500617-.2019778-1.4461605-.351439-2.7549565-.4483883-3.9264273s-.1454233-2.2742526-.1454233-3.3083786v-6.98031511h2.532788v18.71112261h-2.3631275l-2.8236345-8.4224289c-.2585314-.7836736-.5029208-1.5875329-.7331754-2.411602s-.4423281-1.6885207-.6362267-2.59338093c-.0161582-.11310753-.0424149-.25045032-.0787709-.4120325-.036356-.16158217-.0787707-.34739889-.1272453-.55745572.0242373.21005683.0444348.38981431.060593.53927782s.0282767.27670757.0363558.38173599l.1333046 1.90262064.1333047 2.3146531c.0080791.1292657.0141383.286806.0181779.4726255.0040395.1858195.0060593.3958732.0060593.6301673l.1333046 8.1558197h-2.4843136zm11.0707476-3.74222451h8.0419047v2.55944889h-5.0171015v7.11119603h4.4499509v2.5594489h-4.4499509v7.6638044h5.0171015v2.5594489h-8.0419047zm17.0476423 4.04518958v2.2661787c-.646329-.31508524-1.187621-.4726255-1.623893-.4726255-.5978538 0-1.1108695.14744152-1.5390623.442329-.4281927.29488747-.7816484.74933053-1.0603777 1.3633428s-.4847434 1.39161484-.6180487 2.33283104-.199957 2.0540967-.199957 3.338675c0 4.6212503 1.1835717 6.9318408 3.5507507 6.9318408.412034 0 .908892-.1292638 1.490588-.3877953v2.3146531c-.605933.3393226-1.284568.5089813-2.035925.5089813-3.7891023 0-5.6836249-3.0942523-5.6836249-9.2828497 0-3.344751.4625221-5.83307923 1.38758-7.46505922.925058-1.63197999 2.3409006-2.44795775 4.2475699-2.44795775.702883 0 1.397676.18581672 2.0844.55745573zm10.515716 9.51310314c0 3.3043555-.367594 5.6513014-1.102793 7.0409081-.735199 1.3896068-1.967245 2.0843997-3.696174 2.0843997-1.8178 0-3.098319-.7473063-3.841597-2.2419415-.735199-1.4623187-1.102793-4.0597132-1.102793-7.7922615 0-3.3285929.363554-5.68361778 1.090674-7.0651454.735199-1.38960672 1.979363-2.08439966 3.73253-2.08439966 1.567347 0 2.730721.53725268 3.490157 1.61177415.500905.71904069.86446 1.74103263 1.090675 3.06600649.226215 1.22802452.339321 3.02155982.339321 5.38065962zm-2.641856.2666092c0-3.2397226-.145422-5.38873334-.43627-6.4470966-.290847-1.06644237-.884653-1.59965556-1.781434-1.59965556s-1.494626.48877876-1.793553 1.46635093c-.290848.98565128-.43627 2.96500323-.43627 5.93811533 0 2.7388179.153501 4.63738.460507 5.6957433.315085 1.0018095.904851 1.5027067 1.769316 1.5027067.848306 0 1.429993-.4685813 1.745079-1.4057579.315085-.9290975.472625-2.6458824.472625-5.1504062zm4.310991-10.08267741h2.351009l2.508551 7.46505931c.72712 2.1086474 1.369399 4.3586454 1.926858 6.7500617-.201978-1.4461605-.351439-2.7549565-.448389-3.9264273-.096949-1.1714708-.145423-2.2742526-.145423-3.3083786v-6.98031511h2.532788v18.71112261h-2.363127l-2.823635-8.4224289c-.258531-.7836736-.502921-1.5875329-.733175-2.411602-.230255-.8240691-.442328-1.6885207-.636227-2.59338093-.016158-.11310753-.042415-.25045032-.078771-.4120325-.036356-.16158217-.078771-.34739889-.127245-.55745572.024237.21005683.044435.38981431.060593.53927782s.028276.27670757.036356.38173599l.133304 1.90262064.133305 2.3146531c.008079.1292657.014138.286806.018178.4726255.004039.1858195.006059.3958732.006059.6301673l.133305 8.1558197h-2.484314zm20.174242 9.81606821c0 3.3043555-.367594 5.6513014-1.102793 7.0409081-.735199 1.3896068-1.967244 2.0843997-3.696174 2.0843997-1.817799 0-3.098319-.7473063-3.841597-2.2419415-.735199-1.4623187-1.102793-4.0597132-1.102793-7.7922615 0-3.3285929.363555-5.68361778 1.090675-7.0651454.735199-1.38960672 1.979363-2.08439966 3.732529-2.08439966 1.567347 0 2.730722.53725268 3.490158 1.61177415.500905.71904069.864459 1.74103263 1.090674 3.06600649.226215 1.22802452.339321 3.02155982.339321 5.38065962zm-2.641855.2666092c0-3.2397226-.145422-5.38873334-.43627-6.4470966-.290848-1.06644237-.884654-1.59965556-1.781435-1.59965556s-1.494626.48877876-1.793553 1.46635093c-.290848.98565128-.43627 2.96500323-.43627 5.93811533 0 2.7388179.153501 4.63738.460507 5.6957433.315086 1.0018095.904852 1.5027067 1.769316 1.5027067.848307 0 1.429994-.4685813 1.745079-1.4057579.315085-.9290975.472626-2.6458824.472626-5.1504062zm5.195649-10.08267741h2.157111l1.64813 7.63471971c.201977.9533348.385774 1.9086751.551396 2.8660495s.317103 1.9611886.454448 3.0114728c.016158-.1373449.028276-.2443914.036356-.321143.008079-.0767515.016158-.1312847.024237-.1636011l.351439-2.1449927.315084-2.0359252.278728-1.3451649 1.466351-7.50141511h2.181348l1.720842 18.71112261h-2.411602l-.424151-6.3501479c-.016158-.3231643-.030297-.6018894-.042415-.8361835-.012119-.2342942-.018178-.4281899-.018178-.581693l-.109068-2.5085507-.060593-2.3025345c0-.0161583-.002019-.050494-.006059-.1030082s-.010099-.1232053-.018178-.2120755l-.060593.3756767c-.064633.444351-.123205.8321424-.17572 1.1633858-.052514.3312435-.098968.6099686-.139364.8361836l-.315083 1.708723-.121186.6422859-1.575419 8.1679383h-1.696604l-1.47847-7.0530268c-.201977-.9290975-.381735-1.8723193-.539277-2.8296937-.157543-.9573744-.300945-1.9611887-.430211-3.0114728l-.727116 12.8941933h-2.375246zm10.951985 0h2.666092l1.236098 4.07185051c.040395.12118663.08079.25448993.121186.39991389.040395.14542396.088869.30296422.145423.4726255.460509 1.47039781.77559 2.70648291.945251 3.70829241.145424-1.0018095.266609-1.7006419.363558-2.0965182l.387795-1.67236722.145424-.65440455 1.042199-4.22939234h2.629737l-3.259904 10.66437041v8.0467522h-2.520669v-8.0467522z" fill-rule="evenodd"></path></svg>