<svg xmlns:xlink="http://www.w3.org/1999/xlink" class="mx-1 desktop:mx-2 my-1" height="48" viewBox="0 0 48 48" width="48" xmlns="http://www.w3.org/2000/svg"><g fill="none"><path d="m0 0h48v48h-48z" fill="currentColor"></path><path d="m16.284 7.992h2.355l1.363 4.864c.29 1.022.544 1.976.764 2.861.235.872.393 1.492.476 1.86l.124.552c.179-1.213.564-2.977 1.156-5.293l1.281-5.048h3.244l-3.719 13.774h-3.553l-1.219-4.353c-.29-1.049-.53-1.934-.723-2.657a44.238 44.238 0 0 1 -.33-1.39l-.042-.306c-.041.559-.413 2.01-1.115 4.353l-1.281 4.353h-3.555l-3.738-13.774h3.347l1.28 5.068c.276 1.09.503 2.078.682 2.964.18.872.29 1.478.331 1.818l.083.491c.234-1.063.702-2.82 1.404-5.273zm16.706 6.622h1.054c1.68 0 2.52-.756 2.52-2.269 0-1.362-.778-2.044-2.334-2.044h-1.24zm-3.18-6.826h4.793c1.542 0 2.789.429 3.739 1.287.964.859 1.446 1.949 1.446 3.27 0 1.513-.503 2.684-1.508 3.515-.992.832-2.217 1.247-3.677 1.247h-1.613v4.456h-3.18zm-14.214 25.107h1.053c1.68 0 2.52-.756 2.52-2.269 0-1.362-.777-2.043-2.334-2.043h-1.24v4.312zm-3.182-6.826h4.793c1.543 0 2.79.429 3.74 1.287.964.859 1.446 1.949 1.446 3.27 0 1.513-.503 2.685-1.509 3.516-.991.83-2.217 1.246-3.677 1.246h-1.611v4.456h-3.182zm22.962.593v3.024c-1.033-.626-2.183-.94-3.45-.94-1.116 0-2.052.389-2.81 1.165-.757.763-1.136 1.792-1.136 3.086 0 1.267.379 2.276 1.136 3.025.758.736 1.736 1.104 2.934 1.104 1.295 0 2.403-.327 3.326-.981v3.086c-.84.517-2.052.776-3.636.776-2.038 0-3.746-.647-5.123-1.941-1.364-1.308-2.045-2.998-2.045-5.069 0-2.098.66-3.808 1.983-5.13 1.336-1.321 3.071-1.982 5.206-1.982 1.57 0 2.775.259 3.615.777z" fill="#F7F2F2"></path></g></svg>